<svg id="visual" viewBox="0 0 900 600" width="900" height="600" xmlns="http://www.w3.org/2000/svg" xmlns:xlink="http://www.w3.org/1999/xlink" version="1.1"><rect x="0" y="0" width="900" height="600" fill="#001220"></rect><path d="M0 141L21.5 139.8C43 138.7 86 136.3 128.8 130.7C171.7 125 214.3 116 257.2 111.7C300 107.3 343 107.7 385.8 107.3C428.7 107 471.3 106 514.2 110.5C557 115 600 125 642.8 121C685.7 117 728.3 99 771.2 96C814 93 857 105 878.5 111L900 117L900 0L878.5 0C857 0 814 0 771.2 0C728.3 0 685.7 0 642.8 0C600 0 557 0 514.2 0C471.3 0 428.7 0 385.8 0C343 0 300 0 257.2 0C214.3 0 171.7 0 128.8 0C86 0 43 0 21.5 0L0 0Z" fill="#fa7268"></path><path d="M0 53L21.5 60.8C43 68.7 86 84.3 128.8 89.3C171.7 94.3 214.3 88.7 257.2 84C300 79.3 343 75.7 385.8 77.5C428.7 79.3 471.3 86.7 514.2 85.5C557 84.3 600 74.7 642.8 72.2C685.7 69.7 728.3 74.3 771.2 80.5C814 86.7 857 94.3 878.5 98.2L900 102L900 0L878.5 0C857 0 814 0 771.2 0C728.3 0 685.7 0 642.8 0C600 0 557 0 514.2 0C471.3 0 428.7 0 385.8 0C343 0 300 0 257.2 0C214.3 0 171.7 0 128.8 0C86 0 43 0 21.5 0L0 0Z" fill="#e34c67"></path><path d="M0 23L21.5 26.3C43 29.7 86 36.3 128.8 36.5C171.7 36.7 214.3 30.3 257.2 33.5C300 36.7 343 49.3 385.8 53.2C428.7 57 471.3 52 514.2 48.2C557 44.3 600 41.7 642.8 38.2C685.7 34.7 728.3 30.3 771.2 28.8C814 27.3 857 28.7 878.5 29.3L900 30L900 0L878.5 0C857 0 814 0 771.2 0C728.3 0 685.7 0 642.8 0C600 0 557 0 514.2 0C471.3 0 428.7 0 385.8 0C343 0 300 0 257.2 0C214.3 0 171.7 0 128.8 0C86 0 43 0 21.5 0L0 0Z" fill="#c62368"></path></svg>